<svg xmlns="http://www.w3.org/2000/svg" xmlns:xlink="http://www.w3.org/1999/xlink" viewBox="0 0 68.06 68.12">
  <defs>
    <style>
      .cls-1 {
        fill: url(#linear-gradient);
      }

      .cls-2 {
        fill: url(#linear-gradient-2);
      }
    </style>
    <linearGradient id="linear-gradient" x1="34.03" y1="1.76" x2="34.03" y2="69.88" gradientUnits="userSpaceOnUse">
      <stop offset="0" stop-color="#f70001" />
      <stop offset="1" stop-color="#830001" />
    </linearGradient>
    <linearGradient id="linear-gradient-2" x1="7.51" y1="52.24" x2="7.51" y2="66.98" gradientUnits="userSpaceOnUse">
      <stop offset="0" stop-color="#ac0001" />
      <stop offset=".96" stop-color="#b70214" />
    </linearGradient>
  </defs>

  <path class="cls-1"
    d="M55.14,0c.63,0,1.26,0,1.88,0,.03,0,.05.02.08.02.86.07,1.72.12,2.57.23,1.07.13,2.14.31,3.18.64,2.13.67,3.61,2.03,4.31,4.18.33,1.02.49,2.07.63,3.13.22,1.54.29,3.1.25,4.66-.04,1.51-.21,3.01-.5,4.5-.68,3.42-1.99,6.59-3.78,9.56-1.68,2.8-3.72,5.31-6.04,7.6-1.32,1.31-2.67,2.61-4,3.92-.61.6-1.02,1.32-1.17,2.18-.23,1.38-.45,2.77-.68,4.15-.3,1.83-.61,3.66-.9,5.5-.3,1.83-.59,3.66-.88,5.48-.16,1-.51,1.89-1.24,2.61-.43.43-.87.85-1.31,1.28-2.5,2.5-4.99,4.99-7.49,7.49-.25.25-.52.48-.82.67-.54.36-1.14.43-1.77.22-.08-.03-.17-.08-.23-.14-.98-.98-1.96-1.97-2.95-2.96-2.32-2.33-4.65-4.66-6.98-6.99-.06-.06-.16-.1-.24-.1-.32-.02-.62.07-.91.19-.3.12-.6.26-.91.36-1.11.36-2.23.71-3.35,1.07-.47.15-.96.26-1.46.25-.67-.02-1.24-.22-1.73-.72-1.63-1.63-3.27-3.24-4.91-4.86-.91-.9-1.82-1.8-2.73-2.69-.65-.65-1.31-1.29-1.96-1.94-.46-.45-.75-.98-.8-1.64-.03-.43.04-.85.18-1.26.47-1.4.95-2.79,1.43-4.19.13-.38.27-.76.4-1.15.07-.2.03-.36-.14-.53-1.38-1.37-2.75-2.75-4.12-4.13-1.83-1.83-3.65-3.67-5.49-5.5-.28-.28-.56-.55-.58-.98,0,0,0,0-.01-.01,0-.13,0-.25,0-.38.11-.68.53-1.16,1-1.62,1.38-1.37,2.76-2.74,4.13-4.12,1.55-1.55,3.1-3.11,4.65-4.66.04-.04.07-.07.11-.11.5-.57,1.11-.96,1.86-1.11.32-.06.64-.11.96-.16,1.65-.27,3.31-.54,4.96-.81,1.54-.25,3.08-.5,4.62-.74,1.53-.24,3.05-.48,4.58-.7.83-.12,1.6-.37,2.26-.9.31-.25.61-.54.89-.82,1.63-1.61,3.24-3.25,4.89-4.84,2.59-2.51,5.49-4.59,8.75-6.14,3.39-1.62,6.92-2.67,10.68-2.92.27-.02.53-.04.8-.06Z" />
  <path class="cls-2"
    d="M10.27,56.79l4.04,4c1.02,1.01.56,2.75-.82,3.12l-5.49,1.5-5.49,1.5c-1.39.38-2.66-.89-2.29-2.27l1.45-5.5,1.45-5.5c.37-1.39,2.1-1.86,3.12-.85l4.04,4Z" />

</svg>