<?xml version="1.0" encoding="UTF-8"?><svg id="Layer_1" xmlns="http://www.w3.org/2000/svg" viewBox="0 0 534.52 627.28"><defs><style>.cls-1{fill:#231f20;}</style></defs><path class="cls-1" d="m79.82,280.1c2.09-18.35,5.97-36.65,11.69-54.89,9-28.75,22.5-54.59,40.51-77.54,18-22.94,40.21-41.52,66.65-55.76,26.42-14.23,56.76-21.34,91.04-21.34,15.68,0,31.65,1.74,47.92,5.23,16.25,3.48,32.08,9.3,47.48,17.42,15.38,8.14,29.62,18.88,42.69,32.23,13.07,13.37,24.24,29.92,33.54,49.66l61.86-40.08c-19.17-40.08-48.5-72.6-87.99-97.58C395.7,12.5,348.37,0,293.2,0c-46.47,0-87.99,9.01-124.58,27.01-36.59,18.01-67.52,41.68-92.78,71-25.26,29.34-44.43,62.44-57.5,99.32-9.75,27.51-15.85,55.1-18.33,82.77h79.82Z"/><path class="cls-1" d="m469.18,447.8c-8.71,19.17-19.9,35.59-33.54,49.23-13.65,13.65-28.31,24.98-44,33.98-15.68,9.01-32.1,15.55-49.22,19.6-17.14,4.07-33.84,6.1-50.1,6.1-30.79,0-59.24-6.67-85.38-20.04-26.14-13.36-48.79-31.36-67.96-54.01-19.17-22.66-34.13-48.64-44.87-77.98-6.99-19.06-11.66-38.82-14.11-59.24H.91c3.06,26.77,9.39,53.2,19.15,79.28,14.23,38.04,34.27,72.02,60.12,101.93,25.84,29.92,56.48,54.16,91.91,72.75,35.42,18.59,74.34,27.88,116.74,27.88,23.81,0,48.2-3.2,73.18-9.58,24.97-6.39,48.64-15.68,71-27.88,22.35-12.2,42.39-27.14,60.12-44.87,17.71-17.71,31.5-38.19,41.38-61.42l-65.34-35.72Z"/></svg>